<svg width="16" height="16" viewBox="0 0 16 16" fill="none" xmlns="http://www.w3.org/2000/svg">
<path fill-rule="evenodd" clip-rule="evenodd" d="M3.27985 2.22082C3.13767 2.08834 2.94963 2.01622 2.75532 2.01965C2.56102 2.02308 2.37564 2.10179 2.23822 2.2392C2.10081 2.37661 2.0221 2.562 2.01867 2.7563C2.01524 2.9506 2.08737 3.13865 2.21985 3.28082L12.7198 13.7808C12.7885 13.8545 12.8713 13.9136 12.9633 13.9546C13.0553 13.9956 13.1546 14.0176 13.2553 14.0194C13.356 14.0212 13.4561 14.0027 13.5494 13.9649C13.6428 13.9272 13.7277 13.8711 13.7989 13.7999C13.8701 13.7286 13.9262 13.6438 13.964 13.5504C14.0017 13.457 14.0202 13.357 14.0184 13.2563C14.0167 13.1556 13.9946 13.0563 13.9536 12.9643C13.9126 12.8723 13.8535 12.7895 13.7798 12.7208L12.4578 11.3978C13.4499 10.5793 14.1972 9.50324 14.6178 8.28782C14.6812 8.10413 14.6812 7.90452 14.6178 7.72082C14.2916 6.77377 13.766 5.90772 13.0764 5.18115C12.3869 4.45457 11.5496 3.88436 10.6209 3.50902C9.69217 3.13367 8.69376 2.96192 7.69303 3.00536C6.69229 3.0488 5.71252 3.30642 4.81985 3.76082L3.27985 2.22082ZM6.47585 5.41582L7.61085 6.55182C7.86532 6.48384 8.1332 6.48396 8.38761 6.5522C8.64202 6.62043 8.87401 6.75436 9.06032 6.94056C9.24662 7.12677 9.38068 7.35869 9.44905 7.61306C9.51742 7.86743 9.51769 8.13531 9.44985 8.38982L10.5858 9.52482C10.9245 8.95179 11.0629 8.28241 10.9794 7.62206C10.8959 6.96171 10.5951 6.34789 10.1244 5.87724C9.65378 5.40658 9.03996 5.10581 8.37961 5.02227C7.71926 4.93874 7.04988 5.07719 6.47685 5.41582" fill="black"/>
<path d="M7.81232 10.9948L9.62832 12.8108C7.93645 13.2149 6.15473 12.9749 4.63008 12.1376C3.10543 11.3002 1.94699 9.92536 1.38032 8.28078C1.31724 8.09739 1.31724 7.89817 1.38032 7.71478C1.63517 6.97787 2.01135 6.28872 2.49332 5.67578L5.00632 8.18878C5.05213 8.91797 5.36247 9.60537 5.8791 10.122C6.39573 10.6386 7.08314 10.949 7.81232 10.9948Z" fill="black"/>
</svg>
