<svg width="14" height="10" viewBox="0 0 14 10" fill="none" xmlns="http://www.w3.org/2000/svg">
<path d="M6.99967 0.333984C9.45234 0.333984 12.441 1.94532 13.4863 4.26798C13.5837 4.48665 13.6663 4.74132 13.6663 5.00065C13.6663 5.25932 13.5843 5.51465 13.4863 5.73332C12.4403 8.05598 9.45167 9.66732 6.99967 9.66732C4.54767 9.66732 1.55834 8.05598 0.513008 5.73332C0.415674 5.51398 0.333008 5.25998 0.333008 5.00065C0.333008 4.74198 0.415008 4.48665 0.513008 4.26798C1.55901 1.94532 4.54767 0.333984 6.99967 0.333984ZM6.99967 2.33398C6.29243 2.33398 5.61415 2.61494 5.11406 3.11503C4.61396 3.61513 4.33301 4.29341 4.33301 5.00065C4.33301 5.70789 4.61396 6.38617 5.11406 6.88627C5.61415 7.38637 6.29243 7.66732 6.99967 7.66732C7.70692 7.66732 8.3852 7.38637 8.88529 6.88627C9.38539 6.38617 9.66634 5.70789 9.66634 5.00065C9.66634 4.29341 9.38539 3.61513 8.88529 3.11503C8.3852 2.61494 7.70692 2.33398 6.99967 2.33398ZM6.99967 3.66732C7.3533 3.66732 7.69243 3.80779 7.94248 4.05784C8.19253 4.30789 8.33301 4.64703 8.33301 5.00065C8.33301 5.35427 8.19253 5.69341 7.94248 5.94346C7.69243 6.19351 7.3533 6.33398 6.99967 6.33398C6.64605 6.33398 6.30691 6.19351 6.05687 5.94346C5.80682 5.69341 5.66634 5.35427 5.66634 5.00065C5.66634 4.64703 5.80682 4.30789 6.05687 4.05784C6.30691 3.80779 6.64605 3.66732 6.99967 3.66732Z" fill="black"/>
</svg>
